<svg xmlns="http://www.w3.org/2000/svg" width="123" height="36" fill="none"><path fill="#000" d="M1.896 7.182h5.69l6.008 14.659h.255l6.009-14.66h5.689V29h-4.475V14.799h-.18l-5.647 14.095h-3.047L6.552 14.746H6.37V29H1.896zm32.032 22.127q-1.566 0-2.79-.543a4.5 4.5 0 0 1-1.94-1.63q-.703-1.087-.703-2.706 0-1.365.5-2.29a4.05 4.05 0 0 1 1.365-1.492 6.6 6.6 0 0 1 1.96-.852 15 15 0 0 1 2.322-.405q1.428-.15 2.301-.277.874-.14 1.268-.405.394-.267.394-.788v-.064q0-1.012-.639-1.566-.629-.555-1.79-.555-1.224 0-1.95.544-.723.532-.958 1.342l-4.198-.34q.32-1.492 1.258-2.579.937-1.096 2.418-1.683 1.491-.597 3.452-.597 1.364 0 2.61.32 1.257.32 2.226.99a4.8 4.8 0 0 1 1.545 1.726q.564 1.045.565 2.504V29H38.84v-2.27h-.128a4.6 4.6 0 0 1-1.055 1.354 4.9 4.9 0 0 1-1.587.905q-.927.32-2.142.32m1.3-3.132q1.002 0 1.769-.394.767-.405 1.203-1.087.438-.682.437-1.545v-1.736a2.4 2.4 0 0 1-.586.256q-.362.105-.82.202-.457.085-.916.16-.459.063-.831.117a5.6 5.6 0 0 0-1.396.373q-.596.255-.927.692-.33.427-.33 1.066 0 .926.671 1.416.682.48 1.726.48m13.652 8.96a9 9 0 0 1-1.619-.14 6 6 0 0 1-1.236-.33l1.023-3.387q.8.245 1.438.266.65.021 1.119-.298.48-.32.778-1.087l.266-.692-5.87-16.833h4.773l3.388 12.017h.17l3.42-12.017h4.804l-6.36 18.133a7.6 7.6 0 0 1-1.246 2.3 5.1 5.1 0 0 1-1.971 1.524q-1.193.543-2.876.543"/><path fill="#46208F" d="M63.742 29V7.182h8.736q2.408 0 4.016.714 1.61.713 2.418 1.981.81 1.257.81 2.898 0 1.278-.511 2.248-.512.959-1.406 1.576a5.8 5.8 0 0 1-2.025.863v.213q1.246.054 2.334.704 1.097.65 1.779 1.821.681 1.162.681 2.77 0 1.737-.862 3.1-.853 1.353-2.525 2.142-1.673.788-4.123.788zm4.613-3.771h3.76q1.93 0 2.813-.735.885-.747.884-1.982 0-.906-.436-1.598-.437-.693-1.247-1.087-.799-.393-1.907-.394h-3.867zm0-8.917h3.42q.948 0 1.683-.33a2.8 2.8 0 0 0 1.172-.96q.437-.617.437-1.48 0-1.182-.842-1.907-.83-.724-2.365-.724h-3.505zM90.948 29.32q-2.525 0-4.346-1.023a7 7 0 0 1-2.792-2.92q-.98-1.895-.98-4.484 0-2.525.98-4.432t2.76-2.972q1.79-1.065 4.197-1.066 1.62 0 3.015.522 1.407.512 2.45 1.545 1.055 1.034 1.64 2.6.587 1.554.587 3.643v1.246H84.64v-2.812h9.546q0-.98-.426-1.737a3.05 3.05 0 0 0-1.183-1.182q-.746-.437-1.736-.437-1.034 0-1.833.48a3.36 3.36 0 0 0-1.236 1.267 3.6 3.6 0 0 0-.458 1.758v2.674q0 1.215.448 2.099.458.885 1.289 1.363.83.48 1.97.48.758 0 1.386-.213a2.9 2.9 0 0 0 1.076-.64 2.8 2.8 0 0 0 .681-1.044l4.198.277a5.73 5.73 0 0 1-1.31 2.642q-.98 1.12-2.536 1.748-1.545.618-3.569.618M105.96 7.182V29h-4.539V7.182zm8.174 0V29h-4.539V7.182z"/><circle cx="119.5" cy="3.5" r="3.5" fill="#E2B53E"/></svg>