<svg xmlns="http://www.w3.org/2000/svg" width="24" height="24" fill="none"><path fill="#000" fill-rule="evenodd" d="M22 12c0 5.523-4.477 10-10 10S2 17.523 2 12 6.477 2 12 2s10 4.477 10 10m-9.642-2.618q-1.458.607-5.831 2.513-.711.282-.744.552c-.039.304.343.424.862.587l.218.07c.51.166 1.198.36 1.555.368q.486.01 1.084-.4 4.086-2.76 4.218-2.789c.063-.014.149-.032.207.02.059.052.053.15.047.177-.038.161-1.534 1.552-2.308 2.271-.241.225-.413.384-.448.42q-.118.123-.235.233c-.474.457-.83.8.02 1.36.408.27.735.492 1.061.714.356.242.711.484 1.17.785q.177.116.338.234c.415.296.787.56 1.247.518.267-.024.543-.275.683-1.025.332-1.77.983-5.608 1.133-7.19a1.8 1.8 0 0 0-.017-.393.42.42 0 0 0-.142-.27c-.12-.098-.305-.118-.387-.117-.376.007-.954.207-3.73 1.362" clip-rule="evenodd"/></svg>